<?xml version="1.0" ?><svg viewBox="0 0 64 64" xmlns="http://www.w3.org/2000/svg"><g id="outline"><rect height="2" width="2" x="6" y="6"/><rect height="2" width="2" x="46" y="6"/><rect height="2" width="2" x="42" y="6"/><rect height="2" width="2" x="38" y="6"/><path d="M21.573,33.181,12.744,27l8.829-6.181-1.146-1.638-10,7a1,1,0,0,0,0,1.638l10,7Z"/><path d="M33.573,34.819l10-7a1,1,0,0,0,0-1.638l-10-7-1.146,1.638L41.256,27l-8.829,6.181Z"/><rect height="2" transform="translate(-8.555 42.369) rotate(-68.219)" width="16.155" x="18.922" y="26.5"/><rect height="2" width="28" x="11" y="40"/><rect height="2" width="26" x="11" y="44"/><path d="M52,38.181V3a1,1,0,0,0-1-1H3A1,1,0,0,0,2,3V49a1,1,0,0,0,1,1H38A12,12,0,1,0,52,38.181ZM4,4H50v6H4ZM4,48V12H50V38A12.009,12.009,0,0,0,38.181,48ZM50,60A10,10,0,1,1,60,50,10.011,10.011,0,0,1,50,60Z"/><path d="M56.005,45.145l-1.736.564a6.21,6.21,0,0,0-.994-.727V43.161a1,1,0,0,0-1-1h-4a1,1,0,0,0-1,1v1.81a6.135,6.135,0,0,0-1.008.733l-1.721-.559a1.009,1.009,0,0,0-.764.06,1,1,0,0,0-.5.582l-1.236,3.805a1,1,0,0,0,.641,1.26l1.746.567a5.9,5.9,0,0,0,.382,1.15l-1.084,1.492a1,1,0,0,0,.221,1.4l3.236,2.352a1,1,0,0,0,1.4-.221l1.062-1.464a5.316,5.316,0,0,0,1.248,0l1.063,1.464a1,1,0,0,0,.653.4.921.921,0,0,0,.156.013,1,1,0,0,0,.588-.191L56.6,55.457a1,1,0,0,0,.22-1.4l-1.084-1.492a5.971,5.971,0,0,0,.383-1.15l1.745-.567a1,1,0,0,0,.642-1.26l-1.236-3.8a1,1,0,0,0-.5-.582A1.009,1.009,0,0,0,56.005,45.145Zm-1.089,4.56a1,1,0,0,0-.686.853,3.96,3.96,0,0,1-.533,1.6,1,1,0,0,0,.058,1.088l.856,1.179L52.993,55.6l-.839-1.156a1,1,0,0,0-.809-.412.977.977,0,0,0-.215.024,3.579,3.579,0,0,1-1.709,0,1,1,0,0,0-1.025.388L47.558,55.6l-1.619-1.175.857-1.179a1,1,0,0,0,.058-1.088,3.977,3.977,0,0,1-.534-1.6,1,1,0,0,0-.685-.853l-1.375-.446.618-1.9,1.352.441a1,1,0,0,0,1.057-.286,4.035,4.035,0,0,1,1.39-1.011,1,1,0,0,0,.6-.916V44.161h2V45.59a1,1,0,0,0,.592.913,4.1,4.1,0,0,1,1.383,1.013,1,1,0,0,0,1.056.285l1.367-.445.618,1.9Z"/><circle cx="50.275" cy="50.161" r="2"/></g></svg>