<svg xmlns="http://www.w3.org/2000/svg" viewBox="0 0 597.86 763.77"><defs><style>.cls-1{fill:#010101;}</style></defs><title>phoneAsset 1</title><g id="Layer_2" data-name="Layer 2"><g id="Layer_1-2" data-name="Layer 1"><path class="cls-1" d="M288.45,345.64c-16.27,21-15.11,49.94-15.11,49.94,125.55-61.61,175.53,8.14,175.53,8.14,5.81-18.6,0-33.11,0-33.11C383.26,316.49,288.45,345.64,288.45,345.64Z"/><path class="cls-1" d="M39.81,356.4c-4.65,14,0,19.76,0,19.76C79.33,405.23,151.89,400.58,170,393.6c14.73-14.34,10.46-55.8,10.46-55.8C139.77,389,39.81,356.4,39.81,356.4Z"/><path class="cls-1" d="M587.92,539.35c-8.06-8.07-20.36-6.9-89.14-5.3-22.36.51-43.49,2-56.59,3.11a241.79,241.79,0,0,0,2.33-26.32,14.28,14.28,0,0,0-6.84-12.47c-52.9-32.39-123.3-37.22-160.55-37.22-18.1,0-29.71,1.09-30.2,1.14a14.3,14.3,0,0,0-12.54,10.93c-1.18,5-3.86,17-6,31.76a75.67,75.67,0,0,0-37.13-6.91c2.43-12.2,3.8-22.16,4.34-26.42a14.32,14.32,0,0,0-7.25-14.28c-2.05-1.14-51-27.84-123.27-27.84a291.29,291.29,0,0,0-45.4,3.56,14.28,14.28,0,0,0-11.5,10.16C7,447.1-18.43,537.8,26.79,577.63,39.67,589,61.87,595.49,87.67,595.49h0c29.68,0,57-8.78,73.19-23.47,8.28-7.54,14.8-20.45,19.85-34.62,8.77-2.54,27.15-5.18,44.42,9.38.2,16.51,2.68,32.09,9.52,42.34,22.68,34,88.16,54.93,125.11,54.93,10.42,0,19.17-1.53,26-4.54,25-11.07,39.4-37.08,47.65-62.87,22-2.11,44.44-3.61,64.82-4.35-8.23,24.52-12.1,44.06-10,58,3,19.71,9.75,23.39,9.75,23.39,12.4-33.88,17.92-52.64,29.5-81.94,24.34.13,42.15,1.88,46.53,5.73,2.79,2.79,19.12,3.38,21.91.6C601.56,572.53,593.5,544.94,587.92,539.35Zm-446.2,23.83c-10.86,9.87-33.9,13.43-56.32,13.43-18.12,0-40.7-8.23-48.09-14.73C14.08,541.42,21.06,475,33.4,460A261.76,261.76,0,0,1,65,458.12c47.84,0,84.68,13.23,100.69,20.14C172.47,506.85,152.17,553.66,141.72,563.18Zm234.79,62.38c-6.19,3.7-88.4,2.25-122.72-40.73-9.27-11.59-9.59-69.3,6.19-94.72,4.51-.2,10.34-.37,17.15-.37,32.52,0,92.27,3.87,138.4,28.85C419.84,540.21,412,604.34,376.51,625.56Z"/><path class="cls-1" d="M323.81,688.37c-6.06,1-3,14.8-3,14.8-81.53,70.1-175.91,29.13-175.91,29.13s-9.71,12.26,44.53,26.82c79.62,21.39,143.9-38,143.9-38,23.67-1.11,51.87-13.76,51.87-13.76C380.59,693.93,329.87,687.39,323.81,688.37Z"/><path class="cls-1" d="M195.67,289.82c139.14-46.79,295.62,3,295.62,3C517.11,371,522,417.62,522,417.62c-1.39,11.1-1.73,70.05-5.37,89.57h27.08c27.46-64.34,45.4-172.07,45.4-184,0-21.7-36.38-49.43-36.38-49.43s14.63-34.66,0-71c-17-42.19-142.18-61.52-235.46-70.13,9.79-27.79,34.86-79.77,34.86-79.77-61.7,2.26-120.1,44.35-134.41,55.39C229.22,63.49,256.88,12.58,259.55,0,162.07,0,24.31,107.87,37.73,163.76,56.3,241.06,195.67,289.82,195.67,289.82Z"/></g></g></svg>