<svg id="Layer_1" data-name="Layer 1" xmlns="http://www.w3.org/2000/svg" viewBox="0 0 698.55 780"><defs><style>.cls-1{fill:#e7e7e7;stroke:#231f20;stroke-miterlimit:10;stroke-width:8px;}</style></defs><title>phoneArtboard 1</title><path class="cls-1" d="M345.31,352.08c-16.25,20.94-15.09,49.86-15.09,49.86,125.34-61.51,175.25,8.13,175.25,8.13,5.8-18.57,0-33.06,0-33.06C440,323,345.31,352.08,345.31,352.08Z"/><path class="cls-1" d="M97.06,362.82c-4.64,13.93,0,19.73,0,19.73,39.46,29,111.91,24.38,130,17.41,14.7-14.32,10.44-55.71,10.44-55.71C196.87,395.32,97.06,362.82,97.06,362.82Z"/><path class="cls-1" d="M644.29,545.47c-8-8.06-20.32-6.88-89-5.29-22.33.51-43.42,2-56.5,3.1A242.22,242.22,0,0,0,501.12,517a14.27,14.27,0,0,0-6.82-12.45C441.47,472.23,371.19,467.4,334,467.4c-18.07,0-29.66,1.09-30.15,1.14a14.26,14.26,0,0,0-12.52,10.91c-1.17,4.95-3.86,16.95-6,31.71a75.53,75.53,0,0,0-37.06-6.9c2.42-12.18,3.79-22.13,4.32-26.38a14.28,14.28,0,0,0-7.23-14.26c-2.05-1.13-50.93-27.79-123.07-27.79a290.17,290.17,0,0,0-45.32,3.56,14.26,14.26,0,0,0-11.49,10.14c-1.11,3.84-26.53,94.39,18.62,134.16,12.86,11.34,35,17.83,60.78,17.83h0c29.64,0,56.95-8.76,73.07-23.43,8.26-7.53,14.77-20.42,19.82-34.56,8.76-2.54,27.1-5.17,44.35,9.36.2,16.49,2.67,32,9.5,42.27,22.65,34,88,54.84,124.91,54.84,10.4,0,19.13-1.53,25.95-4.53,25-11.05,39.33-37,47.57-62.77,21.93-2.1,44.36-3.6,64.71-4.34-8.21,24.48-12.08,44-9.93,57.95,3,19.67,9.74,23.35,9.74,23.35,12.38-33.82,17.88-52.56,29.44-81.81,24.3.13,42.09,1.87,46.46,5.72,2.79,2.78,19.09,3.38,21.87.6C657.9,578.6,649.86,551.05,644.29,545.47ZM198.81,569.26C188,579.12,165,582.68,142.58,582.68c-18.08,0-40.63-8.22-48-14.72-23.19-20.42-16.22-86.71-3.9-101.67a263,263,0,0,1,31.59-1.92c47.76,0,84.54,13.21,100.52,20.12C229.51,513,209.25,559.76,198.81,569.26Zm234.42,62.28c-6.18,3.7-88.27,2.25-122.53-40.66-9.25-11.57-9.57-69.19,6.18-94.57,4.51-.2,10.32-.37,17.12-.37,32.47,0,92.12,3.87,138.18,28.8C476.48,546.34,468.69,610.36,433.23,631.54Z"/><path class="cls-1" d="M380.61,694.25c-6.05,1-3,14.78-3,14.78C296.25,779,202,738.11,202,738.11s-9.69,12.24,44.46,26.78c79.49,21.36,143.66-38,143.66-38,23.64-1.11,51.79-13.74,51.79-13.74C437.3,699.8,386.66,693.27,380.61,694.25Z"/><path class="cls-1" d="M252.68,296.35c138.91-46.71,295.14,3,295.14,3,25.78,78,30.68,124.56,30.68,124.56-1.39,11.08-1.72,69.94-5.36,89.43h27c27.41-64.24,45.33-171.8,45.33-183.67,0-21.67-36.33-49.35-36.33-49.35s14.61-34.6,0-70.93c-16.93-42.13-141.94-61.42-235.07-70,9.77-27.75,34.8-79.64,34.8-79.64C347.31,62,289,104,274.72,115.07,286.17,70.39,313.78,19.56,316.45,7,219.13,7,81.6,114.7,95,170.49,113.54,247.67,252.68,296.35,252.68,296.35Z"/></svg>